<svg xmlns="http://www.w3.org/2000/svg" width="151.552" height="151.552" viewBox="0 0 151.552 151.552">
  <g id="Group_22" data-name="Group 22" transform="translate(-12.608 -5.934)">
    <rect id="Rectangle_329" data-name="Rectangle 329" width="15.155" height="15.155" transform="translate(133.85 142.331)" fill="#5a3e02"/>
    <rect id="Rectangle_330" data-name="Rectangle 330" width="15.155" height="15.155" transform="translate(118.695 142.331)" fill="#875d03"/>
    <rect id="Rectangle_331" data-name="Rectangle 331" width="15.155" height="15.155" transform="translate(103.54 142.331)" fill="#efca3f"/>
    <rect id="Rectangle_332" data-name="Rectangle 332" width="15.155" height="15.155" transform="translate(88.385 142.331)" fill="#efca3f"/>
    <rect id="Rectangle_333" data-name="Rectangle 333" width="15.155" height="15.155" transform="translate(73.229 142.331)" fill="#d79504"/>
    <rect id="Rectangle_334" data-name="Rectangle 334" width="15.155" height="15.155" transform="translate(58.074 142.331)" fill="#c7983e"/>
    <rect id="Rectangle_335" data-name="Rectangle 335" width="15.155" height="15.155" transform="translate(42.919 142.331)" fill="#6b4a02"/>
    <rect id="Rectangle_336" data-name="Rectangle 336" width="15.155" height="15.155" transform="translate(27.764 142.331)" fill="#5a3e02"/>
    <rect id="Rectangle_337" data-name="Rectangle 337" width="15.155" height="15.155" transform="translate(149.006 127.176)" fill="#5a3e02"/>
    <rect id="Rectangle_338" data-name="Rectangle 338" width="15.155" height="15.155" transform="translate(133.85 127.176)" fill="#d79504"/>
    <rect id="Rectangle_339" data-name="Rectangle 339" width="15.155" height="15.155" transform="translate(118.695 127.176)" fill="#f3d20b"/>
    <rect id="Rectangle_340" data-name="Rectangle 340" width="15.155" height="15.155" transform="translate(103.54 127.176)" fill="#f3d20b"/>
    <rect id="Rectangle_341" data-name="Rectangle 341" width="15.155" height="15.155" transform="translate(88.385 127.176)" fill="#d79504"/>
    <rect id="Rectangle_342" data-name="Rectangle 342" width="15.155" height="15.155" transform="translate(73.229 127.176)" fill="#e5ba92"/>
    <rect id="Rectangle_343" data-name="Rectangle 343" width="15.155" height="15.155" transform="translate(58.074 127.176)" fill="#e5ba92"/>
    <rect id="Rectangle_344" data-name="Rectangle 344" width="15.155" height="15.155" transform="translate(42.919 127.176)" fill="#e5ba92"/>
    <rect id="Rectangle_345" data-name="Rectangle 345" width="15.155" height="15.155" transform="translate(27.764 127.176)" fill="#e5ba92"/>
    <rect id="Rectangle_346" data-name="Rectangle 346" width="15.155" height="15.155" transform="translate(12.608 127.176)" fill="#5a3e02"/>
    <rect id="Rectangle_347" data-name="Rectangle 347" width="15.155" height="15.155" transform="translate(149.006 112.021)" fill="#5a3e02"/>
    <rect id="Rectangle_348" data-name="Rectangle 348" width="15.155" height="15.155" transform="translate(133.85 112.021)" fill="#d79504"/>
    <rect id="Rectangle_349" data-name="Rectangle 349" width="15.155" height="15.155" transform="translate(118.695 112.021)" fill="#f3d20b"/>
    <rect id="Rectangle_350" data-name="Rectangle 350" width="15.155" height="15.155" transform="translate(103.54 112.021)" fill="#f3d20b"/>
    <rect id="Rectangle_351" data-name="Rectangle 351" width="15.155" height="15.155" transform="translate(88.385 112.021)" fill="#b79c78"/>
    <rect id="Rectangle_352" data-name="Rectangle 352" width="15.155" height="15.155" transform="translate(73.229 112.021)" fill="#ebc592"/>
    <rect id="Rectangle_353" data-name="Rectangle 353" width="15.155" height="15.155" transform="translate(58.074 112.021)" fill="#f1d092"/>
    <rect id="Rectangle_354" data-name="Rectangle 354" width="15.155" height="15.155" transform="translate(42.919 112.021)" fill="#f0cd68"/>
    <rect id="Rectangle_355" data-name="Rectangle 355" width="15.155" height="15.155" transform="translate(27.764 112.021)" fill="#f0cd68"/>
    <rect id="Rectangle_356" data-name="Rectangle 356" width="15.155" height="15.155" transform="translate(12.608 112.021)" fill="#5a3e02"/>
    <rect id="Rectangle_357" data-name="Rectangle 357" width="15.155" height="15.155" transform="translate(149.006 96.866)" fill="#5a3e02"/>
    <rect id="Rectangle_358" data-name="Rectangle 358" width="15.155" height="15.155" transform="translate(133.85 96.866)" fill="#d79504"/>
    <rect id="Rectangle_359" data-name="Rectangle 359" width="15.155" height="15.155" transform="translate(118.695 96.866)" fill="#f3d20b"/>
    <rect id="Rectangle_360" data-name="Rectangle 360" width="15.155" height="15.155" transform="translate(103.54 96.866)" fill="#f3d20b"/>
    <rect id="Rectangle_361" data-name="Rectangle 361" width="15.155" height="15.155" transform="translate(88.385 96.866)" fill="#c7983e"/>
    <rect id="Rectangle_362" data-name="Rectangle 362" width="15.155" height="15.155" transform="translate(73.229 96.866)" fill="#efca3f"/>
    <rect id="Rectangle_363" data-name="Rectangle 363" width="15.155" height="15.155" transform="translate(58.074 96.866)" fill="#efca3f"/>
    <rect id="Rectangle_364" data-name="Rectangle 364" width="15.155" height="15.155" transform="translate(42.919 96.866)" fill="#efca3f"/>
    <rect id="Rectangle_365" data-name="Rectangle 365" width="15.155" height="15.155" transform="translate(27.764 96.866)" fill="#efca3f"/>
    <rect id="Rectangle_366" data-name="Rectangle 366" width="15.155" height="15.155" transform="translate(12.608 96.866)" fill="#5a3e02"/>
    <rect id="Rectangle_367" data-name="Rectangle 367" width="15.155" height="15.155" transform="translate(149.006 81.71)" fill="#c68804"/>
    <rect id="Rectangle_368" data-name="Rectangle 368" width="15.155" height="15.155" transform="translate(133.85 81.71)" fill="#c68804"/>
    <rect id="Rectangle_369" data-name="Rectangle 369" width="15.155" height="15.155" transform="translate(118.695 81.71)" fill="#f3d20b"/>
    <rect id="Rectangle_370" data-name="Rectangle 370" width="15.155" height="15.155" transform="translate(103.54 81.71)" fill="#f1a62d"/>
    <rect id="Rectangle_371" data-name="Rectangle 371" width="15.155" height="15.155" transform="translate(88.385 81.71)" fill="#d79504"/>
    <rect id="Rectangle_372" data-name="Rectangle 372" width="15.155" height="15.155" transform="translate(73.229 81.71)" fill="#efca3f"/>
    <rect id="Rectangle_373" data-name="Rectangle 373" width="15.155" height="15.155" transform="translate(58.074 81.71)" fill="#efca3f"/>
    <rect id="Rectangle_374" data-name="Rectangle 374" width="15.155" height="15.155" transform="translate(42.919 81.71)" fill="#f2d08a"/>
    <rect id="Rectangle_375" data-name="Rectangle 375" width="15.155" height="15.155" transform="translate(27.764 81.71)" fill="#efca3f"/>
    <rect id="Rectangle_376" data-name="Rectangle 376" width="15.155" height="15.155" transform="translate(12.608 81.71)" fill="#efca3f"/>
    <rect id="Rectangle_377" data-name="Rectangle 377" width="15.155" height="15.155" transform="translate(149.006 66.555)" fill="#5a3e02"/>
    <rect id="Rectangle_378" data-name="Rectangle 378" width="15.155" height="15.155" transform="translate(133.85 66.555)" fill="#dab123"/>
    <rect id="Rectangle_379" data-name="Rectangle 379" width="15.155" height="15.155" transform="translate(118.695 66.555)" fill="#e7c30a"/>
    <rect id="Rectangle_380" data-name="Rectangle 380" width="15.155" height="15.155" transform="translate(103.54 66.555)"/>
    <rect id="Rectangle_381" data-name="Rectangle 381" width="15.155" height="15.155" transform="translate(88.385 66.555)" fill="#f3d20b"/>
    <rect id="Rectangle_382" data-name="Rectangle 382" width="15.155" height="15.155" transform="translate(73.229 66.555)" fill="#6b4a02"/>
    <rect id="Rectangle_383" data-name="Rectangle 383" width="15.155" height="15.155" transform="translate(58.074 66.555)" fill="#71570f"/>
    <rect id="Rectangle_384" data-name="Rectangle 384" width="15.155" height="15.155" transform="translate(42.919 66.555)" fill="#6b4a02"/>
    <rect id="Rectangle_385" data-name="Rectangle 385" width="15.155" height="15.155" transform="translate(27.764 66.555)" fill="#e2ae1f"/>
    <rect id="Rectangle_386" data-name="Rectangle 386" width="15.155" height="15.155" transform="translate(12.608 66.555)" fill="#5a3e02"/>
    <rect id="Rectangle_387" data-name="Rectangle 387" width="15.155" height="15.155" transform="translate(149.006 51.4)" fill="#5a3e02"/>
    <rect id="Rectangle_388" data-name="Rectangle 388" width="15.155" height="15.155" transform="translate(133.85 51.4)" fill="#e5b307"/>
    <rect id="Rectangle_389" data-name="Rectangle 389" width="15.155" height="15.155" transform="translate(118.695 51.4)" fill="#f3d20b"/>
    <rect id="Rectangle_390" data-name="Rectangle 390" width="15.155" height="15.155" transform="translate(103.54 51.4)" fill="#f3d20b"/>
    <rect id="Rectangle_391" data-name="Rectangle 391" width="15.155" height="15.155" transform="translate(88.385 51.4)" fill="#f1ce25"/>
    <rect id="Rectangle_392" data-name="Rectangle 392" width="15.155" height="15.155" transform="translate(73.229 51.4)" fill="#71570f"/>
    <rect id="Rectangle_393" data-name="Rectangle 393" width="15.155" height="15.155" transform="translate(133.85 36.245)" fill="#5a3e02"/>
    <rect id="Rectangle_394" data-name="Rectangle 394" width="15.155" height="15.155" transform="translate(118.695 36.245)" fill="#6b4a02"/>
    <rect id="Rectangle_395" data-name="Rectangle 395" width="15.155" height="15.155" transform="translate(103.54 36.245)" fill="#f1ce25"/>
    <rect id="Rectangle_396" data-name="Rectangle 396" width="15.155" height="15.155" transform="translate(88.385 36.245)" fill="#f3d20b"/>
    <rect id="Rectangle_397" data-name="Rectangle 397" width="15.155" height="15.155" transform="translate(73.229 36.245)" fill="#e3af21"/>
    <rect id="Rectangle_398" data-name="Rectangle 398" width="15.155" height="15.155" transform="translate(58.074 36.245)" fill="#5a3e02"/>
    <rect id="Rectangle_399" data-name="Rectangle 399" width="15.155" height="15.155" transform="translate(118.695 21.089)" fill="#5a3e02"/>
    <rect id="Rectangle_400" data-name="Rectangle 400" width="15.155" height="15.155" transform="translate(103.54 21.089)" fill="#6b4a02"/>
    <rect id="Rectangle_401" data-name="Rectangle 401" width="15.155" height="15.155" transform="translate(88.385 21.089)" fill="#5a3e02"/>
    <rect id="Rectangle_402" data-name="Rectangle 402" width="15.155" height="15.155" transform="translate(73.229 21.089)" fill="#6b4a02"/>
    <rect id="Rectangle_403" data-name="Rectangle 403" width="15.155" height="15.155" transform="translate(58.074 21.089)" fill="#5a3e02"/>
    <rect id="Rectangle_404" data-name="Rectangle 404" width="15.155" height="15.155" transform="translate(88.385 5.934)" fill="#5a3e02"/>
    <rect id="Rectangle_405" data-name="Rectangle 405" width="15.155" height="15.155" transform="translate(73.229 5.934)" fill="#5a3e02"/>
  </g>
</svg>
