<svg xmlns="http://www.w3.org/2000/svg" xmlns:xlink="http://www.w3.org/1999/xlink" width="318" height="358" viewBox="0 0 318 358">
  <defs>
    <filter id="Rectangle_33" x="0" y="0" width="318" height="358" filterUnits="userSpaceOnUse">
      <feOffset dy="3" input="SourceAlpha"/>
      <feGaussianBlur stdDeviation="3" result="blur"/>
      <feFlood flood-opacity="0.161"/>
      <feComposite operator="in" in2="blur"/>
      <feComposite in="SourceGraphic"/>
    </filter>
    <filter id="Rectangle_114" x="8" y="220" width="302" height="106" filterUnits="userSpaceOnUse">
      <feOffset dy="3" input="SourceAlpha"/>
      <feGaussianBlur stdDeviation="3" result="blur-2"/>
      <feFlood flood-opacity="0.161"/>
      <feComposite operator="in" in2="blur-2"/>
      <feComposite in="SourceGraphic"/>
    </filter>
  </defs>
  <g id="Group_10" data-name="Group 10" transform="translate(-29 -60)">
    <g transform="matrix(1, 0, 0, 1, 29, 60)" filter="url(#Rectangle_33)">
      <rect id="Rectangle_33-2" data-name="Rectangle 33" width="300" height="340" rx="17" transform="translate(9 6)" fill="#4bd6f2"/>
    </g>
    <g transform="matrix(1, 0, 0, 1, 29, 60)" filter="url(#Rectangle_114)">
      <rect id="Rectangle_114-2" data-name="Rectangle 114" width="284" height="88" rx="44" transform="translate(17 226)" fill="#4864e6"/>
    </g>
    <text id="My_GigaPet" data-name="My GigaPet" transform="translate(139.5 124)" fill="#fff" font-size="16" font-family="Montserrat-Bold, Montserrat" font-weight="700"><tspan x="0" y="0">My GigaPet</tspan></text>
    <g id="Group_14" data-name="Group 14" transform="translate(94.892 175.269)">
      <rect id="Rectangle_143" data-name="Rectangle 143" width="16.18" height="16.18" transform="translate(142.046 151.551)" fill="#5a3e02"/>
      <rect id="Rectangle_144" data-name="Rectangle 144" width="16.18" height="16.18" transform="translate(125.866 151.551)" fill="#875d03"/>
      <rect id="Rectangle_145" data-name="Rectangle 145" width="16.18" height="16.18" transform="translate(109.686 151.551)" fill="#efca3f"/>
      <rect id="Rectangle_146" data-name="Rectangle 146" width="16.18" height="16.18" transform="translate(93.507 151.551)" fill="#efca3f"/>
      <rect id="Rectangle_147" data-name="Rectangle 147" width="16.18" height="16.18" transform="translate(77.327 151.551)" fill="#d79504"/>
      <rect id="Rectangle_148" data-name="Rectangle 148" width="16.18" height="16.18" transform="translate(61.147 151.551)" fill="#c7983e"/>
      <rect id="Rectangle_149" data-name="Rectangle 149" width="16.18" height="16.18" transform="translate(44.968 151.551)" fill="#6b4a02"/>
      <rect id="Rectangle_150" data-name="Rectangle 150" width="16.18" height="16.18" transform="translate(28.788 151.551)" fill="#5a3e02"/>
      <rect id="Rectangle_151" data-name="Rectangle 151" width="16.18" height="16.18" transform="translate(158.225 135.372)" fill="#5a3e02"/>
      <rect id="Rectangle_152" data-name="Rectangle 152" width="16.18" height="16.18" transform="translate(142.046 135.372)" fill="#d79504"/>
      <rect id="Rectangle_153" data-name="Rectangle 153" width="16.18" height="16.18" transform="translate(125.866 135.372)" fill="#f3d20b"/>
      <rect id="Rectangle_154" data-name="Rectangle 154" width="16.18" height="16.18" transform="translate(109.686 135.372)" fill="#f3d20b"/>
      <rect id="Rectangle_155" data-name="Rectangle 155" width="16.18" height="16.18" transform="translate(93.507 135.372)" fill="#d79504"/>
      <rect id="Rectangle_156" data-name="Rectangle 156" width="16.18" height="16.18" transform="translate(77.327 135.372)" fill="#e5ba92"/>
      <rect id="Rectangle_157" data-name="Rectangle 157" width="16.18" height="16.18" transform="translate(61.147 135.372)" fill="#e5ba92"/>
      <rect id="Rectangle_158" data-name="Rectangle 158" width="16.18" height="16.18" transform="translate(44.968 135.372)" fill="#e5ba92"/>
      <rect id="Rectangle_159" data-name="Rectangle 159" width="16.18" height="16.18" transform="translate(28.788 135.372)" fill="#e5ba92"/>
      <rect id="Rectangle_160" data-name="Rectangle 160" width="16.18" height="16.18" transform="translate(12.608 135.372)" fill="#5a3e02"/>
      <rect id="Rectangle_161" data-name="Rectangle 161" width="16.18" height="16.18" transform="translate(158.225 119.192)" fill="#5a3e02"/>
      <rect id="Rectangle_162" data-name="Rectangle 162" width="16.18" height="16.18" transform="translate(142.046 119.192)" fill="#d79504"/>
      <rect id="Rectangle_163" data-name="Rectangle 163" width="16.18" height="16.18" transform="translate(125.866 119.192)" fill="#f3d20b"/>
      <rect id="Rectangle_164" data-name="Rectangle 164" width="16.18" height="16.18" transform="translate(109.686 119.192)" fill="#f3d20b"/>
      <rect id="Rectangle_165" data-name="Rectangle 165" width="16.18" height="16.18" transform="translate(93.507 119.192)" fill="#b79c78"/>
      <rect id="Rectangle_166" data-name="Rectangle 166" width="16.18" height="16.18" transform="translate(77.327 119.192)" fill="#ebc592"/>
      <rect id="Rectangle_167" data-name="Rectangle 167" width="16.18" height="16.18" transform="translate(61.147 119.192)" fill="#f1d092"/>
      <rect id="Rectangle_168" data-name="Rectangle 168" width="16.18" height="16.18" transform="translate(44.968 119.192)" fill="#f0cd68"/>
      <rect id="Rectangle_169" data-name="Rectangle 169" width="16.18" height="16.18" transform="translate(28.788 119.192)" fill="#f0cd68"/>
      <rect id="Rectangle_170" data-name="Rectangle 170" width="16.18" height="16.18" transform="translate(12.608 119.192)" fill="#5a3e02"/>
      <rect id="Rectangle_171" data-name="Rectangle 171" width="16.18" height="16.18" transform="translate(158.225 103.012)" fill="#5a3e02"/>
      <rect id="Rectangle_172" data-name="Rectangle 172" width="16.18" height="16.18" transform="translate(142.046 103.012)" fill="#d79504"/>
      <rect id="Rectangle_173" data-name="Rectangle 173" width="16.18" height="16.18" transform="translate(125.866 103.012)" fill="#f3d20b"/>
      <rect id="Rectangle_174" data-name="Rectangle 174" width="16.18" height="16.18" transform="translate(109.686 103.012)" fill="#f3d20b"/>
      <rect id="Rectangle_175" data-name="Rectangle 175" width="16.18" height="16.18" transform="translate(93.507 103.012)" fill="#c7983e"/>
      <rect id="Rectangle_176" data-name="Rectangle 176" width="16.18" height="16.18" transform="translate(77.327 103.012)" fill="#efca3f"/>
      <rect id="Rectangle_177" data-name="Rectangle 177" width="16.18" height="16.18" transform="translate(61.147 103.012)" fill="#efca3f"/>
      <rect id="Rectangle_178" data-name="Rectangle 178" width="16.18" height="16.18" transform="translate(44.968 103.012)" fill="#efca3f"/>
      <rect id="Rectangle_179" data-name="Rectangle 179" width="16.18" height="16.18" transform="translate(28.788 103.012)" fill="#efca3f"/>
      <rect id="Rectangle_180" data-name="Rectangle 180" width="16.18" height="16.18" transform="translate(12.608 103.012)" fill="#5a3e02"/>
      <rect id="Rectangle_181" data-name="Rectangle 181" width="16.18" height="16.18" transform="translate(158.225 86.832)" fill="#c68804"/>
      <rect id="Rectangle_182" data-name="Rectangle 182" width="16.18" height="16.18" transform="translate(142.046 86.832)" fill="#c68804"/>
      <rect id="Rectangle_183" data-name="Rectangle 183" width="16.18" height="16.18" transform="translate(125.866 86.832)" fill="#f3d20b"/>
      <rect id="Rectangle_184" data-name="Rectangle 184" width="16.18" height="16.18" transform="translate(109.686 86.832)" fill="#f1a62d"/>
      <rect id="Rectangle_185" data-name="Rectangle 185" width="16.18" height="16.18" transform="translate(93.507 86.832)" fill="#d79504"/>
      <rect id="Rectangle_186" data-name="Rectangle 186" width="16.18" height="16.18" transform="translate(77.327 86.832)" fill="#efca3f"/>
      <rect id="Rectangle_187" data-name="Rectangle 187" width="16.18" height="16.18" transform="translate(61.147 86.832)" fill="#efca3f"/>
      <rect id="Rectangle_188" data-name="Rectangle 188" width="16.18" height="16.18" transform="translate(44.968 86.832)" fill="#f2d08a"/>
      <rect id="Rectangle_189" data-name="Rectangle 189" width="16.18" height="16.18" transform="translate(28.788 86.832)" fill="#efca3f"/>
      <rect id="Rectangle_190" data-name="Rectangle 190" width="16.18" height="16.18" transform="translate(12.608 86.832)" fill="#efca3f"/>
      <rect id="Rectangle_191" data-name="Rectangle 191" width="16.18" height="16.18" transform="translate(158.225 70.653)" fill="#5a3e02"/>
      <rect id="Rectangle_192" data-name="Rectangle 192" width="16.18" height="16.18" transform="translate(142.046 70.653)" fill="#dab123"/>
      <rect id="Rectangle_193" data-name="Rectangle 193" width="16.18" height="16.18" transform="translate(125.866 70.653)" fill="#e7c30a"/>
      <rect id="Rectangle_194" data-name="Rectangle 194" width="16.18" height="16.18" transform="translate(109.686 70.653)"/>
      <rect id="Rectangle_195" data-name="Rectangle 195" width="16.18" height="16.18" transform="translate(93.507 70.653)" fill="#f3d20b"/>
      <rect id="Rectangle_196" data-name="Rectangle 196" width="16.18" height="16.18" transform="translate(77.327 70.653)" fill="#6b4a02"/>
      <rect id="Rectangle_197" data-name="Rectangle 197" width="16.18" height="16.18" transform="translate(61.147 70.653)" fill="#71570f"/>
      <rect id="Rectangle_198" data-name="Rectangle 198" width="16.18" height="16.18" transform="translate(44.968 70.653)" fill="#6b4a02"/>
      <rect id="Rectangle_199" data-name="Rectangle 199" width="16.18" height="16.18" transform="translate(28.788 70.653)" fill="#e2ae1f"/>
      <rect id="Rectangle_200" data-name="Rectangle 200" width="16.18" height="16.18" transform="translate(12.608 70.653)" fill="#5a3e02"/>
      <rect id="Rectangle_201" data-name="Rectangle 201" width="16.18" height="16.18" transform="translate(158.225 54.473)" fill="#5a3e02"/>
      <rect id="Rectangle_202" data-name="Rectangle 202" width="16.18" height="16.18" transform="translate(142.046 54.473)" fill="#e5b307"/>
      <rect id="Rectangle_203" data-name="Rectangle 203" width="16.18" height="16.18" transform="translate(125.866 54.473)" fill="#f3d20b"/>
      <rect id="Rectangle_204" data-name="Rectangle 204" width="16.18" height="16.18" transform="translate(109.686 54.473)" fill="#f3d20b"/>
      <rect id="Rectangle_205" data-name="Rectangle 205" width="16.18" height="16.18" transform="translate(93.507 54.473)" fill="#f1ce25"/>
      <rect id="Rectangle_206" data-name="Rectangle 206" width="16.18" height="16.18" transform="translate(77.327 54.473)" fill="#71570f"/>
      <rect id="Rectangle_207" data-name="Rectangle 207" width="16.18" height="16.18" transform="translate(61.147 54.473)" fill="#71570f"/>
      <rect id="Rectangle_208" data-name="Rectangle 208" width="16.18" height="16.18" transform="translate(44.968 54.473)" fill="#71570f"/>
      <rect id="Rectangle_209" data-name="Rectangle 209" width="16.18" height="16.18" transform="translate(28.788 54.473)" fill="#71570f"/>
      <rect id="Rectangle_210" data-name="Rectangle 210" width="16.18" height="16.18" transform="translate(142.046 38.293)" fill="#5a3e02"/>
      <rect id="Rectangle_211" data-name="Rectangle 211" width="16.18" height="16.18" transform="translate(125.866 38.293)" fill="#6b4a02"/>
      <rect id="Rectangle_212" data-name="Rectangle 212" width="16.18" height="16.18" transform="translate(109.686 38.293)" fill="#f1ce25"/>
      <rect id="Rectangle_213" data-name="Rectangle 213" width="16.18" height="16.18" transform="translate(93.507 38.293)" fill="#f3d20b"/>
      <rect id="Rectangle_214" data-name="Rectangle 214" width="16.18" height="16.18" transform="translate(77.327 38.293)" fill="#e3af21"/>
      <rect id="Rectangle_215" data-name="Rectangle 215" width="16.18" height="16.18" transform="translate(61.147 38.293)" fill="#5a3e02"/>
      <rect id="Rectangle_216" data-name="Rectangle 216" width="16.18" height="16.18" transform="translate(125.866 22.114)" fill="#5a3e02"/>
      <rect id="Rectangle_217" data-name="Rectangle 217" width="16.18" height="16.18" transform="translate(109.686 22.114)" fill="#6b4a02"/>
      <rect id="Rectangle_218" data-name="Rectangle 218" width="16.18" height="16.18" transform="translate(93.507 22.114)" fill="#5a3e02"/>
      <rect id="Rectangle_219" data-name="Rectangle 219" width="16.18" height="16.18" transform="translate(77.327 22.114)" fill="#6b4a02"/>
      <rect id="Rectangle_220" data-name="Rectangle 220" width="16.18" height="16.18" transform="translate(61.147 22.114)" fill="#5a3e02"/>
      <rect id="Rectangle_221" data-name="Rectangle 221" width="16.18" height="16.18" transform="translate(93.507 5.934)" fill="#5a3e02"/>
      <rect id="Rectangle_222" data-name="Rectangle 222" width="16.18" height="16.18" transform="translate(77.327 5.934)" fill="#5a3e02"/>
    </g>
  </g>
</svg>
