<svg xmlns="http://www.w3.org/2000/svg" width="146" height="146" viewBox="0 0 146 146">
  <g id="Group_23" data-name="Group 23" transform="translate(-12.608 -5.934)">
    <rect id="Rectangle_406" data-name="Rectangle 406" width="14.6" height="14.6" transform="translate(129.408 137.334)" fill="#5a3e02"/>
    <rect id="Rectangle_407" data-name="Rectangle 407" width="14.6" height="14.6" transform="translate(114.808 137.334)" fill="#875d03"/>
    <rect id="Rectangle_408" data-name="Rectangle 408" width="14.6" height="14.6" transform="translate(100.208 137.334)" fill="#efca3f"/>
    <rect id="Rectangle_409" data-name="Rectangle 409" width="14.6" height="14.6" transform="translate(85.608 137.334)" fill="#efca3f"/>
    <rect id="Rectangle_410" data-name="Rectangle 410" width="14.6" height="14.6" transform="translate(71.008 137.334)" fill="#d79504"/>
    <rect id="Rectangle_411" data-name="Rectangle 411" width="14.6" height="14.6" transform="translate(56.408 137.334)" fill="#c7983e"/>
    <rect id="Rectangle_412" data-name="Rectangle 412" width="14.6" height="14.6" transform="translate(41.808 137.334)" fill="#6b4a02"/>
    <rect id="Rectangle_413" data-name="Rectangle 413" width="14.6" height="14.6" transform="translate(27.208 137.334)" fill="#5a3e02"/>
    <rect id="Rectangle_414" data-name="Rectangle 414" width="14.6" height="14.6" transform="translate(144.008 122.734)" fill="#5a3e02"/>
    <rect id="Rectangle_415" data-name="Rectangle 415" width="14.6" height="14.6" transform="translate(129.408 122.734)" fill="#d79504"/>
    <rect id="Rectangle_416" data-name="Rectangle 416" width="14.6" height="14.6" transform="translate(114.808 122.734)" fill="#f3d20b"/>
    <rect id="Rectangle_417" data-name="Rectangle 417" width="14.6" height="14.6" transform="translate(100.208 122.734)" fill="#f3d20b"/>
    <rect id="Rectangle_418" data-name="Rectangle 418" width="14.6" height="14.6" transform="translate(85.608 122.734)" fill="#d79504"/>
    <rect id="Rectangle_419" data-name="Rectangle 419" width="14.6" height="14.6" transform="translate(71.008 122.734)" fill="#e5ba92"/>
    <rect id="Rectangle_420" data-name="Rectangle 420" width="14.6" height="14.6" transform="translate(56.408 122.734)" fill="#e5ba92"/>
    <rect id="Rectangle_421" data-name="Rectangle 421" width="14.6" height="14.6" transform="translate(41.808 122.734)" fill="#e5ba92"/>
    <rect id="Rectangle_422" data-name="Rectangle 422" width="14.6" height="14.6" transform="translate(27.208 122.734)" fill="#e5ba92"/>
    <rect id="Rectangle_423" data-name="Rectangle 423" width="14.6" height="14.6" transform="translate(12.608 122.734)" fill="#5a3e02"/>
    <rect id="Rectangle_424" data-name="Rectangle 424" width="14.6" height="14.6" transform="translate(144.008 108.134)" fill="#5a3e02"/>
    <rect id="Rectangle_425" data-name="Rectangle 425" width="14.6" height="14.6" transform="translate(129.408 108.134)" fill="#d79504"/>
    <rect id="Rectangle_426" data-name="Rectangle 426" width="14.6" height="14.6" transform="translate(114.808 108.134)" fill="#f3d20b"/>
    <rect id="Rectangle_427" data-name="Rectangle 427" width="14.6" height="14.6" transform="translate(100.208 108.134)" fill="#f3d20b"/>
    <rect id="Rectangle_428" data-name="Rectangle 428" width="14.6" height="14.6" transform="translate(85.608 108.134)" fill="#b79c78"/>
    <rect id="Rectangle_429" data-name="Rectangle 429" width="14.6" height="14.6" transform="translate(71.008 108.134)" fill="#ebc592"/>
    <rect id="Rectangle_430" data-name="Rectangle 430" width="14.6" height="14.6" transform="translate(56.408 108.134)" fill="#f1d092"/>
    <rect id="Rectangle_431" data-name="Rectangle 431" width="14.6" height="14.6" transform="translate(41.808 108.134)" fill="#f0cd68"/>
    <rect id="Rectangle_432" data-name="Rectangle 432" width="14.6" height="14.6" transform="translate(27.208 108.134)" fill="#f0cd68"/>
    <rect id="Rectangle_433" data-name="Rectangle 433" width="14.6" height="14.6" transform="translate(12.608 108.134)" fill="#5a3e02"/>
    <rect id="Rectangle_434" data-name="Rectangle 434" width="14.6" height="14.6" transform="translate(144.008 93.534)" fill="#5a3e02"/>
    <rect id="Rectangle_435" data-name="Rectangle 435" width="14.6" height="14.6" transform="translate(129.408 93.534)" fill="#d79504"/>
    <rect id="Rectangle_436" data-name="Rectangle 436" width="14.6" height="14.6" transform="translate(114.808 93.534)" fill="#f3d20b"/>
    <rect id="Rectangle_437" data-name="Rectangle 437" width="14.6" height="14.6" transform="translate(100.208 93.534)" fill="#f3d20b"/>
    <rect id="Rectangle_438" data-name="Rectangle 438" width="14.6" height="14.6" transform="translate(85.608 93.534)" fill="#c7983e"/>
    <rect id="Rectangle_439" data-name="Rectangle 439" width="14.6" height="14.6" transform="translate(71.008 93.534)" fill="#efca3f"/>
    <rect id="Rectangle_440" data-name="Rectangle 440" width="14.6" height="14.6" transform="translate(56.408 93.534)" fill="#efca3f"/>
    <rect id="Rectangle_441" data-name="Rectangle 441" width="14.6" height="14.6" transform="translate(41.808 93.534)" fill="#efca3f"/>
    <rect id="Rectangle_442" data-name="Rectangle 442" width="14.6" height="14.6" transform="translate(27.208 93.534)" fill="#efca3f"/>
    <rect id="Rectangle_443" data-name="Rectangle 443" width="14.6" height="14.6" transform="translate(12.608 93.534)" fill="#5a3e02"/>
    <rect id="Rectangle_444" data-name="Rectangle 444" width="14.6" height="14.6" transform="translate(144.008 78.934)" fill="#c68804"/>
    <rect id="Rectangle_445" data-name="Rectangle 445" width="14.6" height="14.6" transform="translate(129.408 78.934)" fill="#c68804"/>
    <rect id="Rectangle_446" data-name="Rectangle 446" width="14.6" height="14.6" transform="translate(114.808 78.934)" fill="#f3d20b"/>
    <rect id="Rectangle_447" data-name="Rectangle 447" width="14.6" height="14.6" transform="translate(100.208 78.934)" fill="#f1a62d"/>
    <rect id="Rectangle_448" data-name="Rectangle 448" width="14.6" height="14.6" transform="translate(85.608 78.934)" fill="#d79504"/>
    <rect id="Rectangle_449" data-name="Rectangle 449" width="14.6" height="14.6" transform="translate(71.008 78.934)" fill="#efca3f"/>
    <rect id="Rectangle_450" data-name="Rectangle 450" width="14.6" height="14.6" transform="translate(56.408 78.934)" fill="#efca3f"/>
    <rect id="Rectangle_451" data-name="Rectangle 451" width="14.6" height="14.6" transform="translate(41.808 78.934)" fill="#f2d08a"/>
    <rect id="Rectangle_452" data-name="Rectangle 452" width="14.6" height="14.6" transform="translate(27.208 78.934)" fill="#efca3f"/>
    <rect id="Rectangle_453" data-name="Rectangle 453" width="14.6" height="14.6" transform="translate(12.608 78.934)" fill="#efca3f"/>
    <rect id="Rectangle_454" data-name="Rectangle 454" width="14.6" height="14.6" transform="translate(144.008 64.334)" fill="#5a3e02"/>
    <rect id="Rectangle_455" data-name="Rectangle 455" width="14.6" height="14.6" transform="translate(129.408 64.334)" fill="#dab123"/>
    <rect id="Rectangle_456" data-name="Rectangle 456" width="14.6" height="14.6" transform="translate(114.808 64.334)"/>
    <rect id="Rectangle_457" data-name="Rectangle 457" width="14.6" height="14.6" transform="translate(100.208 64.334)"/>
    <rect id="Rectangle_458" data-name="Rectangle 458" width="14.6" height="14.6" transform="translate(85.608 64.334)" fill="#f3d20b"/>
    <rect id="Rectangle_459" data-name="Rectangle 459" width="14.6" height="14.6" transform="translate(71.008 64.334)" fill="#6b4a02"/>
    <rect id="Rectangle_460" data-name="Rectangle 460" width="14.6" height="14.6" transform="translate(56.408 64.334)" fill="#71570f"/>
    <rect id="Rectangle_461" data-name="Rectangle 461" width="14.6" height="14.6" transform="translate(41.808 64.334)" fill="#6b4a02"/>
    <rect id="Rectangle_462" data-name="Rectangle 462" width="14.6" height="14.6" transform="translate(27.208 64.334)" fill="#e2ae1f"/>
    <rect id="Rectangle_463" data-name="Rectangle 463" width="14.6" height="14.6" transform="translate(12.608 64.334)" fill="#5a3e02"/>
    <rect id="Rectangle_464" data-name="Rectangle 464" width="14.6" height="14.6" transform="translate(144.008 49.734)" fill="#5a3e02"/>
    <rect id="Rectangle_465" data-name="Rectangle 465" width="14.6" height="14.6" transform="translate(129.408 49.734)" fill="#e5b307"/>
    <rect id="Rectangle_466" data-name="Rectangle 466" width="14.6" height="14.6" transform="translate(114.808 49.734)" fill="#f3d20b"/>
    <rect id="Rectangle_467" data-name="Rectangle 467" width="14.6" height="14.6" transform="translate(100.208 49.734)" fill="#f3d20b"/>
    <rect id="Rectangle_468" data-name="Rectangle 468" width="14.6" height="14.6" transform="translate(85.608 49.734)" fill="#f1ce25"/>
    <rect id="Rectangle_469" data-name="Rectangle 469" width="14.6" height="14.6" transform="translate(71.008 49.734)" fill="#71570f"/>
    <rect id="Rectangle_470" data-name="Rectangle 470" width="14.6" height="14.6" transform="translate(129.408 35.134)" fill="#5a3e02"/>
    <rect id="Rectangle_471" data-name="Rectangle 471" width="14.6" height="14.6" transform="translate(114.808 35.134)" fill="#6b4a02"/>
    <rect id="Rectangle_472" data-name="Rectangle 472" width="14.6" height="14.6" transform="translate(100.208 35.134)" fill="#f1ce25"/>
    <rect id="Rectangle_473" data-name="Rectangle 473" width="14.6" height="14.6" transform="translate(85.608 35.134)" fill="#f3d20b"/>
    <rect id="Rectangle_474" data-name="Rectangle 474" width="14.6" height="14.6" transform="translate(71.008 35.134)" fill="#e3af21"/>
    <rect id="Rectangle_475" data-name="Rectangle 475" width="14.6" height="14.6" transform="translate(56.408 35.134)" fill="#5a3e02"/>
    <rect id="Rectangle_476" data-name="Rectangle 476" width="14.6" height="14.6" transform="translate(114.808 20.534)" fill="#5a3e02"/>
    <rect id="Rectangle_477" data-name="Rectangle 477" width="14.6" height="14.6" transform="translate(100.208 20.534)" fill="#6b4a02"/>
    <rect id="Rectangle_478" data-name="Rectangle 478" width="14.6" height="14.6" transform="translate(85.608 20.534)" fill="#5a3e02"/>
    <rect id="Rectangle_479" data-name="Rectangle 479" width="14.6" height="14.6" transform="translate(71.008 20.534)" fill="#6b4a02"/>
    <rect id="Rectangle_480" data-name="Rectangle 480" width="14.6" height="14.6" transform="translate(56.408 20.534)" fill="#5a3e02"/>
    <rect id="Rectangle_481" data-name="Rectangle 481" width="14.6" height="14.6" transform="translate(85.608 5.934)" fill="#5a3e02"/>
    <rect id="Rectangle_482" data-name="Rectangle 482" width="14.6" height="14.6" transform="translate(71.008 5.934)" fill="#5a3e02"/>
  </g>
</svg>
