<svg xmlns="http://www.w3.org/2000/svg" width="24.379" height="20.431" viewBox="0 0 24.379 20.431">
  <g id="Icon_ionic-ios-menu" data-name="Icon ionic-ios-menu" transform="translate(-4.5 -10.125)">
    <path id="Path_18" data-name="Path 18" d="M27.863,13.044H5.516c-.559,0-1.016-.657-1.016-1.459h0c0-.8.457-1.459,1.016-1.459H27.863c.559,0,1.016.657,1.016,1.459h0C28.879,12.387,28.422,13.044,27.863,13.044Z" transform="translate(0)" fill="#fff"/>
    <path id="Path_19" data-name="Path 19" d="M27.863,19.794H5.516c-.559,0-1.016-.657-1.016-1.459h0c0-.8.457-1.459,1.016-1.459H27.863c.559,0,1.016.657,1.016,1.459h0C28.879,19.137,28.422,19.794,27.863,19.794Z" transform="translate(0 2.006)" fill="#fff"/>
    <path id="Path_20" data-name="Path 20" d="M27.863,26.544H5.516c-.559,0-1.016-.657-1.016-1.459h0c0-.8.457-1.459,1.016-1.459H27.863c.559,0,1.016.657,1.016,1.459h0C28.879,25.887,28.422,26.544,27.863,26.544Z" transform="translate(0 4.013)" fill="#fff"/>
  </g>
</svg>
