<svg xmlns="http://www.w3.org/2000/svg" width="9.4" height="9.4" viewBox="0 0 9.4 9.4">
  <path id="Icon_material-exit-to-app" data-name="Icon material-exit-to-app" d="M8.2,11.075l.736.736L11.55,9.2,8.939,6.589,8.2,7.325,9.55,8.678H4.5V9.722H9.55ZM12.856,4.5H5.544A1.044,1.044,0,0,0,4.5,5.544V7.633H5.544V5.544h7.311v7.311H5.544V10.767H4.5v2.089A1.044,1.044,0,0,0,5.544,13.9h7.311A1.048,1.048,0,0,0,13.9,12.856V5.544A1.048,1.048,0,0,0,12.856,4.5Z" transform="translate(-4.5 -4.5)" fill="#fff"/>
</svg>
