<svg xmlns="http://www.w3.org/2000/svg" width="20.25" height="31.5" viewBox="0 0 20.25 31.5">
  <g id="Group_8" data-name="Group 8" transform="translate(-147.925 -271.25)">
    <path id="Icon_ionic-md-female" data-name="Icon ionic-md-female" d="M28.125,12.375a10.125,10.125,0,1,0-11.812,9.984v3.516H11.25V29.25h5.063v4.5h3.375v-4.5H24.75V25.875H19.688V22.359A10.123,10.123,0,0,0,28.125,12.375Zm-16.875,0A6.75,6.75,0,1,1,18,19.125,6.761,6.761,0,0,1,11.25,12.375Z" transform="translate(176.05 305) rotate(180)" fill="#fff"/>
    <rect id="Rectangle_27" data-name="Rectangle 27" width="3" height="14" transform="translate(164.01 281.389) rotate(135)" fill="#fff"/>
    <rect id="Rectangle_28" data-name="Rectangle 28" width="3" height="14" transform="translate(154.111 283.511) rotate(-135)" fill="#fff"/>
  </g>
</svg>
